<svg id="bold" enable-background="new 0 0 32 32" height="512" viewBox="0 0 32 32" width="512" xmlns="http://www.w3.org/2000/svg"><path d="m26 32h-20c-3.314 0-6-2.686-6-6v-20c0-3.314 2.686-6 6-6h20c3.314 0 6 2.686 6 6v20c0 3.314-2.686 6-6 6z" fill="#0a0a0fe0"/><path d="m23.102 20.98c.013-.104.032-.206.032-.313s-.018-.209-.032-.313l.6-.454c.134-.101.172-.287.087-.432l-.539-.934c-.084-.146-.263-.206-.418-.14l-.691.292c-.168-.128-.348-.242-.546-.325l-.092-.734c-.021-.167-.163-.292-.331-.292h-1.078c-.168 0-.31.125-.331.292l-.092.734c-.198.083-.378.196-.546.325l-.691-.292c-.155-.065-.334-.005-.418.14l-.539.934c-.084.146-.047.331.087.432l.6.454c-.013.104-.032.206-.032.313s.018.209.032.313l-.6.454c-.134.101-.172.287-.087.432l.539.934c.084.146.263.206.418.14l.691-.292c.168.128.348.242.546.325l.092.734c.022.168.163.293.332.293h1.078c.168 0 .31-.125.331-.292l.092-.734c.198-.083.378-.196.546-.325l.691.292c.155.065.334.005.418-.14l.539-.934c.084-.146.047-.331-.087-.432zm-2.468 1.02c-.736 0-1.333-.597-1.333-1.333s.597-1.333 1.333-1.333 1.333.597 1.333 1.333-.597 1.333-1.333 1.333z" fill="#ff2d20"/><g fill="#fc573b"><path d="m20.634 8h-10.667c-1.105 0-2 .895-2 2s.895 2 2 2h10.667c1.105 0 2-.895 2-2s-.896-2-2-2zm-10.667 2.667c-.368 0-.667-.299-.667-.667s.299-.667.667-.667.667.298.667.667c0 .368-.299.667-.667.667zm2.667 0c-.368 0-.667-.299-.667-.667s.298-.667.667-.667.666.299.666.667-.298.667-.666.667z"/><path d="m20.634 13.333h-10.667c-1.107 0-2 .893-2 2s.893 2 2 2h7.393c.34-.24.767-.347 1.187-.28.247-.62.853-1.053 1.547-1.053h1.08c.433 0 .827.167 1.127.44.207-.32.333-.7.333-1.107 0-1.106-.894-2-2-2zm-10.667 2.667c-.367 0-.667-.3-.667-.667s.3-.667.667-.667.667.3.667.667-.3.667-.667.667zm2.667 0c-.367 0-.667-.3-.667-.667s.3-.667.667-.667.667.3.667.667-.301.667-.667.667z"/><path d="m16.46 20.667c-.419-.534-.51-1.25-.06-2h-6.433c-1.107 0-2 .893-2 2s.893 2 2 2h6.433c-.449-.749-.36-1.465.06-2zm-6.493.666c-.367 0-.667-.3-.667-.667 0-.366.3-.666.667-.666s.667.3.667.667c0 .366-.3.666-.667.666zm2.667 0c-.367 0-.667-.3-.667-.667s.3-.667.667-.667.667.3.667.667c-.001.367-.301.667-.667.667z"/></g></svg>
